<svg xmlns="http://www.w3.org/2000/svg" width="24" height="24" viewBox="0 0 24 24"><path fill="#047857" d="M11.754 20.867q-3.562-.573-5.746-3.026T3.473 11.56q-.025-.18.034-.324t.17-.257t.257-.158t.318.004q3.671.567 5.877 2.91t2.423 6.384q.025.168-.043.313t-.186.256q-.111.112-.257.161t-.312.018M12 14.683q-.427-.781-1.247-1.69T9.096 11.6q.046-1.442.715-3.316t1.658-3.328q.112-.143.247-.214t.284-.07t.29.07t.235.22q.99 1.46 1.664 3.344t.715 3.332q-.84.45-1.704 1.415t-1.2 1.63m1.604 5.902q-.05-1.218-.318-2.52t-.74-2.28q.806-1.823 2.707-3.197t4.52-1.763q.173-.05.315-.001t.254.16t.17.254t.034.316q-.296 3.467-2.062 5.7t-4.88 3.33"/></svg>